<?xml version="1.0" standalone="no"?><!DOCTYPE svg PUBLIC "-//W3C//DTD SVG 1.1//EN" "http://www.w3.org/Graphics/SVG/1.1/DTD/svg11.dtd"><svg t="1603958581577" class="icon" viewBox="0 0 1024 1024" version="1.1" xmlns="http://www.w3.org/2000/svg" p-id="3137" xmlns:xlink="http://www.w3.org/1999/xlink" width="64" height="64"><defs><style type="text/css"></style></defs><path d="M70.412503 532.298399h883.186973v489.305803a2.395798 2.395798 0 0 1-2.395798 2.395798H72.808301a2.395798 2.395798 0 0 1-2.395798-2.395798V532.298399zM937.056491 54.803879c-8.612894-27.923026-27.551677-54.803879-61.092849-54.803879H148.048337c-33.541172 0-52.252354 26.521484-61.092849 54.803879l-61.092849 288.250436c0 64.686546 42.273856 121.047694 103.282852 147.808757 39.602541 17.381514 87.231005 10.373805 119.143034-16.926313l68.879193-58.864756c16.938292-14.482599 43.124364-15.77633 61.691798-3.030685l93.57987 64.099576c27.03658 18.50754 64.542798 18.459624 91.507504-0.131769l88.021618-60.673585c19.657523-13.548238 47.484716-11.895137 64.974042 3.869214l72.760385 65.608928c18.423687 16.614859 45.376414 23.394967 70.676041 17.537242 78.965502-18.26796 137.758385-82.894611 137.758385-159.236714zM837.295462 218.616567h-650.578945v-71.346864h650.578945z" p-id="3138"></path></svg>